<?xml version="1.0" standalone="no"?>
<!DOCTYPE svg PUBLIC "-//W3C//DTD SVG 20010904//EN"
 "http://www.w3.org/TR/2001/REC-SVG-20010904/DTD/svg10.dtd">
<svg version="1.0" xmlns="http://www.w3.org/2000/svg"
 width="512.000000pt" height="512.000000pt" viewBox="0 0 512.000000 512.000000"
 preserveAspectRatio="xMidYMid meet">

<g transform="translate(0.000000,512.000000) scale(0.100000,-0.100000)"
fill="#000000" stroke="none">
<path d="M0 2560 l0 -2560 2560 0 2560 0 0 2560 0 2560 -2560 0 -2560 0 0
-2560z m1387 408 c32 -30 31 -77 -3 -109 -25 -24 -29 -24 -235 -27 l-209 -3 0
80 0 81 212 0 c204 0 213 -1 235 -22z m2911 -110 c32 -32 -8 -80 -48 -58 -34
18 -19 70 20 70 9 0 21 -5 28 -12z m-2904 -136 c-4 -80 -59 -114 -196 -120
l-98 -4 0 -144 0 -144 -80 0 -80 0 0 225 0 225 228 -2 227 -3 -1 -33z m342 3
c65 -38 97 -92 102 -171 l4 -64 -166 0 -166 0 11 -23 c26 -58 127 -78 195 -38
38 23 54 19 88 -18 24 -26 13 -41 -57 -76 -57 -28 -148 -34 -208 -13 -148 50
-198 249 -91 361 75 79 195 97 288 42z m704 -25 c0 -54 -2 -60 -20 -60 -38 0
-89 -28 -104 -59 -12 -22 -16 -60 -16 -146 l0 -115 -55 0 -55 0 0 215 0 215
55 0 c52 0 55 -1 55 -25 l0 -26 29 22 c17 12 47 25 68 29 21 4 39 8 41 9 1 0
2 -26 2 -59z m355 35 c75 -36 124 -114 125 -197 l0 -48 -165 0 c-97 0 -165 -4
-165 -9 0 -6 10 -21 23 -36 39 -44 141 -49 188 -9 21 19 25 18 65 -12 l35 -27
-23 -25 c-38 -41 -95 -62 -171 -62 -76 0 -116 13 -166 56 -97 82 -95 264 5
340 70 54 171 65 249 29z m1202 10 c21 -9 45 -23 55 -32 17 -15 18 -14 18 10
0 26 2 27 55 27 l55 0 0 -215 0 -215 -55 0 c-49 0 -55 2 -55 20 0 20 -1 20
-31 -2 -26 -19 -43 -23 -109 -23 -72 0 -81 2 -117 31 -88 71 -115 194 -65 296
46 94 159 140 249 103z m-1997 -20 l0 -24 36 24 c21 14 51 25 70 25 l34 0 0
-55 c0 -49 -2 -55 -20 -55 -38 0 -89 -28 -104 -59 -12 -22 -16 -60 -16 -146
l0 -115 -55 0 -55 0 0 215 0 215 55 0 c52 0 55 -1 55 -25z m1100 -115 c30 -77
56 -140 59 -140 4 0 29 62 58 138 l51 137 62 3 c59 3 61 2 55 -18 -4 -12 -54
-132 -111 -268 -121 -288 -138 -312 -224 -312 -51 0 -110 22 -110 41 0 8 27
67 35 77 1 1 14 -2 29 -8 33 -12 60 0 79 36 14 27 14 26 -160 442 -4 9 12 12
60 12 l64 0 53 -140z m454 113 c-1 -13 3 -23 7 -23 5 0 9 4 9 8 0 16 59 42 94
42 l36 0 0 -54 0 -53 -42 -6 c-82 -11 -109 -67 -107 -222 1 -49 -1 -91 -5 -92
-3 -2 -28 -3 -56 -3 l-50 0 0 215 0 216 58 -3 c52 -3 57 -5 56 -25z"/>
<path d="M4244 2846 c-3 -8 -4 -21 -1 -28 3 -7 6 -3 6 8 1 25 32 28 43 4 6
-11 7 -10 5 5 -3 25 -44 33 -53 11z"/>
<path d="M4260 2815 c0 -8 5 -15 10 -15 6 0 10 7 10 15 0 8 -4 15 -10 15 -5 0
-10 -7 -10 -15z"/>
<path d="M1574 2650 c-22 -9 -64 -56 -64 -71 0 -5 47 -9 105 -9 108 0 115 3
95 41 -22 39 -88 59 -136 39z"/>
<path d="M2645 2648 c-11 -6 -28 -20 -37 -32 -34 -41 -25 -46 87 -46 70 0 105
4 105 11 0 6 -15 26 -34 45 -36 36 -81 44 -121 22z"/>
<path d="M3892 2630 c-35 -22 -52 -54 -52 -101 0 -69 50 -114 123 -113 33 1
47 8 74 38 93 101 -27 248 -145 176z"/>
</g>
</svg>
