<?xml version="1.0" standalone="no"?>
<!DOCTYPE svg PUBLIC "-//W3C//DTD SVG 20010904//EN"
 "http://www.w3.org/TR/2001/REC-SVG-20010904/DTD/svg10.dtd">
<svg version="1.0" xmlns="http://www.w3.org/2000/svg"
 width="1000.000000pt" height="1000.000000pt" viewBox="0 0 1000.000000 1000.000000"
 preserveAspectRatio="xMidYMid meet">

<g transform="translate(0.000000,1000.000000) scale(0.100000,-0.100000)"
fill="#000000" stroke="none">
<path d="M2269 9045 c-344 -54 -620 -195 -869 -445 -229 -229 -362 -472 -432
-790 l-23 -105 0 -2705 0 -2705 23 -105 c46 -208 129 -404 243 -572 88 -130
285 -326 414 -411 177 -117 358 -193 565 -239 l105 -23 2705 0 2705 0 105 23
c208 46 404 129 572 243 123 83 324 284 407 407 114 168 197 364 243 572 l23
105 0 2030 0 2030 -23 105 c-31 141 -74 264 -135 385 -109 219 -105 214 -971
1081 -712 713 -812 808 -896 863 -177 116 -357 190 -560 230 -58 12 -124 26
-147 31 -27 6 -756 9 -2005 9 -1588 -1 -1979 -3 -2049 -14z m334 -1147 c5
-583 6 -597 61 -762 115 -343 389 -613 735 -725 173 -57 157 -56 1191 -56
l955 0 105 23 c182 41 339 114 472 221 183 146 322 346 387 556 47 151 51 209
51 706 0 369 3 469 13 469 6 0 48 -23 92 -51 67 -42 201 -172 831 -802 825
-826 815 -814 884 -1005 63 -174 61 -91 58 -2194 l-3 -1913 -27 -98 c-93 -336
-339 -582 -675 -675 l-98 -27 -2635 0 -2635 0 -99 28 c-337 94 -581 338 -674
674 l-27 98 0 2635 0 2635 27 98 c118 426 475 699 925 706 l81 1 5 -542z
m3337 55 c0 -391 -3 -502 -15 -558 -41 -196 -194 -354 -386 -400 -95 -22
-1826 -23 -1912 0 -187 49 -333 195 -382 382 -12 47 -15 147 -15 560 l0 503
1355 0 1355 0 0 -487z"/>
<path d="M3552 5295 c-229 -42 -425 -142 -592 -301 -173 -165 -279 -356 -332
-596 -22 -100 -23 -118 -23 -648 0 -531 1 -548 23 -649 40 -180 114 -340 221
-473 182 -229 424 -374 709 -423 126 -22 2758 -22 2884 0 228 40 427 139 592
295 178 169 283 356 338 602 22 101 23 116 23 648 0 530 -1 548 -23 648 -96
437 -405 760 -840 880 l-97 27 -1405 2 c-1131 1 -1419 -1 -1478 -12z m2803
-620 c197 -42 354 -193 400 -386 22 -94 22 -984 0 -1078 -46 -192 -204 -345
-400 -386 -105 -22 -2605 -22 -2710 0 -196 41 -354 194 -400 386 -12 52 -15
150 -15 539 0 389 3 487 15 539 45 191 202 344 395 385 99 22 2613 22 2715 1z"/>
<path d="M222 2368 c-5 -7 -12 -22 -14 -33 -4 -18 -6 -17 -18 8 -14 30 -33 38
-23 10 11 -31 46 -63 69 -63 23 0 54 24 54 41 0 39 -46 64 -68 37z m43 -34 c0
-10 -8 -20 -17 -22 -18 -3 -26 27 -11 42 12 11 28 0 28 -20z"/>
<path d="M176 2254 c-19 -18 -20 -28 -6 -55 19 -35 70 -17 70 26 1 18 3 17 18
-7 17 -29 32 -36 32 -17 0 18 -57 69 -79 69 -11 0 -27 -7 -35 -16z m41 -38
c-4 -9 -11 -16 -17 -16 -17 0 -24 31 -9 41 18 11 34 -5 26 -25z"/>
<path d="M231 2151 c-7 -5 -27 -7 -42 -4 -42 6 -38 -20 8 -52 47 -32 63 -32
63 0 0 16 6 25 15 25 8 0 15 7 15 16 0 8 -4 13 -9 9 -5 -3 -12 -1 -16 5 -8 12
-16 12 -34 1z m-2 -30 c7 -5 12 -14 9 -21 -2 -8 -11 -5 -28 9 -17 14 -20 20
-10 21 8 0 21 -4 29 -9z"/>
<path d="M223 2038 c-6 -7 -13 -21 -16 -31 -8 -22 -27 -13 -27 14 0 10 -4 19
-10 19 -5 0 -10 -13 -10 -30 0 -19 5 -30 14 -30 8 0 20 -2 28 -5 8 -3 18 6 25
26 14 37 38 34 38 -4 -1 -30 12 -36 22 -11 15 40 -39 84 -64 52z"/>
<path d="M177 1932 c-22 -24 -21 -35 1 -55 36 -33 112 -13 112 28 0 20 -40 45
-71 45 -14 0 -33 -8 -42 -18z m77 -8 c24 -9 19 -33 -8 -40 -31 -7 -66 3 -66
21 0 21 41 32 74 19z"/>
<path d="M160 1822 c0 -5 7 -17 15 -28 13 -17 14 -17 15 -1 0 14 9 17 50 17
28 0 50 5 50 10 0 6 -28 10 -65 10 -36 0 -65 -4 -65 -8z"/>
<path d="M226 1761 c-3 -4 -17 -6 -30 -4 -21 4 -26 0 -32 -22 -4 -15 -2 -31 5
-38 8 -8 11 -4 11 16 0 17 5 27 15 27 8 0 15 -7 15 -15 0 -22 17 -18 23 6 8
29 32 18 32 -14 -1 -30 12 -36 22 -11 14 37 -41 87 -61 55z"/>
<path d="M235 1660 c-4 -6 -16 -8 -26 -5 -35 11 -60 -22 -40 -53 10 -17 91
-25 108 -11 18 15 16 44 -3 63 -18 19 -30 20 -39 6z m-27 -37 c-4 -22 -22 -20
-26 1 -2 10 3 16 13 16 10 0 15 -7 13 -17z m60 0 c-2 -10 -10 -18 -18 -18 -8
0 -16 8 -18 18 -2 12 3 17 18 17 15 0 20 -5 18 -17z"/>
<path d="M222 1548 c-5 -7 -12 -22 -14 -33 -4 -18 -6 -17 -18 8 -14 30 -33 38
-23 10 11 -31 46 -63 69 -63 23 0 54 24 54 41 0 39 -46 64 -68 37z m43 -34 c0
-10 -8 -20 -17 -22 -18 -3 -26 27 -11 42 12 11 28 0 28 -20z"/>
<path d="M196 1451 c-4 -6 -12 -9 -17 -6 -5 4 -9 2 -9 -4 0 -5 6 -12 13 -15 9
-5 9 -7 0 -12 -10 -4 -9 -9 2 -20 8 -9 20 -12 26 -8 6 3 14 1 18 -5 5 -8 15
-9 31 -3 19 7 21 10 7 15 -23 9 -22 28 1 20 12 -4 11 0 -7 17 -17 17 -25 20
-31 10 -6 -9 -10 -8 -17 5 -7 12 -12 14 -17 6z m39 -41 c-3 -5 -10 -10 -16
-10 -5 0 -9 5 -9 10 0 6 7 10 16 10 8 0 12 -4 9 -10z"/>
<path d="M140 1280 c0 -6 38 -10 95 -10 57 0 95 4 95 10 0 6 -38 10 -95 10
-57 0 -95 -4 -95 -10z"/>
<path d="M261 1189 c-22 -18 -25 -19 -42 -3 -11 10 -22 14 -27 10 -4 -4 4 -16
17 -27 l23 -19 -46 0 c-34 0 -46 -4 -46 -15 0 -12 15 -15 75 -15 60 0 75 3 75
15 0 9 -9 15 -22 15 l-23 0 24 19 c13 10 22 23 20 29 -2 6 -14 3 -28 -9z"/>
<path d="M190 1081 c0 -27 27 -51 55 -51 24 0 45 25 45 54 0 25 -18 19 -22 -6
-2 -17 -10 -23 -28 -23 -18 0 -26 6 -28 23 -4 27 -22 30 -22 3z"/>
<path d="M206 994 c-19 -18 -20 -28 -6 -55 21 -39 90 -16 90 30 0 16 -30 41
-50 41 -10 0 -26 -7 -34 -16z m59 -29 c0 -22 -31 -33 -47 -17 -17 17 -1 44 24
40 15 -2 23 -10 23 -23z"/>
<path d="M190 900 c0 -5 -7 -10 -15 -10 -8 0 -15 -4 -15 -10 0 -5 6 -10 14
-10 8 0 17 -6 20 -12 5 -10 7 -10 12 0 3 6 21 12 40 12 34 0 56 22 39 38 -4 4
-10 1 -12 -5 -5 -15 -63 -18 -63 -3 0 6 -4 10 -10 10 -5 0 -10 -4 -10 -10z"/>
<path d="M212 810 c-19 -34 -35 -34 -40 -2 -5 30 -22 28 -22 -2 0 -50 54 -61
77 -16 17 34 38 32 38 -3 -1 -32 18 -31 23 2 8 53 -49 69 -76 21z"/>
<path d="M200 675 c-22 -26 3 -65 40 -65 35 0 58 36 45 67 -7 16 -9 15 -13 -7
-6 -40 -22 -48 -22 -12 0 25 -4 32 -19 32 -10 0 -24 -7 -31 -15z m30 -26 c0
-11 -4 -17 -10 -14 -5 3 -10 13 -10 21 0 8 5 14 10 14 6 0 10 -9 10 -21z"/>
<path d="M197 561 c-8 -22 -18 -31 -34 -31 -14 0 -23 -6 -23 -15 0 -23 138
-22 147 2 10 26 -19 68 -50 71 -24 3 -30 -2 -40 -27z m57 3 c28 -11 18 -34
-14 -34 -18 0 -30 5 -30 13 0 25 15 32 44 21z"/>
<path d="M206 464 c-19 -18 -20 -28 -6 -55 21 -39 90 -16 90 30 0 16 -30 41
-50 41 -10 0 -26 -7 -34 -16z m59 -29 c0 -22 -31 -33 -47 -17 -17 17 -1 44 24
40 15 -2 23 -10 23 -23z"/>
<path d="M140 350 c0 -5 11 -10 25 -10 15 0 25 -6 25 -14 0 -45 73 -62 92 -22
20 45 6 56 -72 56 -40 0 -70 -4 -70 -10z m128 -27 c-2 -12 -12 -18 -28 -18
-16 0 -26 6 -28 18 -3 13 3 17 28 17 25 0 31 -4 28 -17z"/>
<path d="M220 246 c-36 -13 -66 -29 -68 -37 -1 -9 20 -21 68 -35 38 -12 70
-17 70 -12 0 6 -9 12 -20 15 -14 4 -20 14 -20 34 0 22 5 29 20 29 11 0 20 7
20 15 0 8 -1 15 -2 14 -2 0 -32 -11 -68 -23z m8 -51 c-7 -7 -48 7 -48 15 0 15
45 16 48 2 2 -8 2 -15 0 -17z"/>
</g>
</svg>
